<svg data-v-423bf9ae="" xmlns="http://www.w3.org/2000/svg" viewBox="0 0 279.72502437838483 60" class="font"><defs data-v-423bf9ae=""><linearGradient data-v-423bf9ae="" gradientTransform="rotate(25)" id="33d315a0-25ff-4298-9b6e-d32b79b70eca" x1="0%" y1="0%" x2="100%" y2="0%"><stop data-v-423bf9ae="" offset="0%" style="stop-color: rgb(8, 199, 214); stop-opacity: 1;"></stop><stop data-v-423bf9ae="" offset="100%" style="stop-color: rgb(2, 2, 62); stop-opacity: 1;"></stop></linearGradient></defs><g data-v-423bf9ae="" id="1a148ea8-03c3-4ba6-b494-456d024c4505" fill="url(#33d315a0-25ff-4298-9b6e-d32b79b70eca)" transform="matrix(4.3415338049581536,0,0,4.3415338049581536,-4.905935759824331,-15.759768685684364)"><path d="M2.60 13.64L1.13 13.64L1.89 3.63L4.38 3.63L6.52 10.03L6.90 11.52L7.04 11.52L7.43 10.03L9.58 3.63L12.13 3.63L12.91 13.64L11.16 13.64L10.69 6.16L10.65 4.60L10.51 4.60L10.10 6.09L7.66 13.44L6.12 13.44L3.66 6.10L3.23 4.60L3.10 4.60L3.06 6.15L2.60 13.64ZM21.06 12.15L21.06 12.98Q20.76 13.19 20.41 13.34Q20.06 13.49 19.69 13.59Q19.33 13.69 18.96 13.74Q18.59 13.78 18.27 13.78L18.27 13.78Q17.51 13.78 16.85 13.55Q16.20 13.32 15.72 12.87Q15.24 12.41 14.96 11.75Q14.69 11.09 14.69 10.24L14.69 10.24Q14.69 9.33 15.00 8.59Q15.31 7.85 15.82 7.34Q16.34 6.82 17.02 6.54Q17.70 6.26 18.44 6.26L18.44 6.26Q19.05 6.26 19.58 6.46Q20.11 6.67 20.50 7.06Q20.88 7.46 21.10 8.05Q21.32 8.65 21.32 9.43L21.32 9.43Q21.32 9.63 21.30 9.84Q21.29 10.06 21.25 10.26L21.25 10.26L16.41 10.26Q16.41 10.81 16.60 11.24Q16.80 11.66 17.15 11.95Q17.51 12.23 18.01 12.38Q18.50 12.52 19.11 12.52L19.11 12.52Q19.28 12.52 19.51 12.51Q19.74 12.50 20.00 12.46Q20.25 12.41 20.53 12.34Q20.80 12.27 21.06 12.15L21.06 12.15ZM16.41 9.45L19.78 9.45Q19.78 8.96 19.66 8.58Q19.53 8.20 19.31 7.95Q19.09 7.70 18.80 7.57Q18.51 7.44 18.18 7.44L18.18 7.44Q17.80 7.44 17.48 7.59Q17.16 7.75 16.92 8.02Q16.68 8.29 16.54 8.65Q16.41 9.02 16.41 9.45L16.41 9.45ZM23.83 11.64L23.83 7.58L22.37 7.58L22.50 6.80Q23.04 6.67 23.36 6.49Q23.69 6.32 23.90 6.07Q24.12 5.82 24.28 5.47Q24.44 5.11 24.65 4.59L24.65 4.59L25.44 4.59L25.44 6.40L28.05 6.40L27.75 7.58L25.49 7.58L25.49 11.31Q25.49 11.65 25.59 11.88Q25.68 12.11 25.86 12.25Q26.04 12.39 26.29 12.46Q26.54 12.52 26.85 12.52L26.85 12.52Q27.15 12.52 27.45 12.47Q27.75 12.41 28.01 12.31L28.01 12.31L28.01 13.15Q27.55 13.46 27.02 13.62Q26.49 13.78 25.95 13.78L25.95 13.78Q24.92 13.78 24.37 13.22Q23.83 12.66 23.83 11.64L23.83 11.64ZM32.78 13.78L32.78 13.78Q31.92 13.78 31.27 13.49Q30.62 13.21 30.17 12.72Q29.73 12.23 29.50 11.59Q29.27 10.94 29.27 10.23L29.27 10.23Q29.27 9.40 29.57 8.68Q29.86 7.96 30.39 7.42Q30.92 6.88 31.65 6.57Q32.38 6.26 33.26 6.26L33.26 6.26Q34.11 6.26 34.77 6.55Q35.42 6.84 35.87 7.33Q36.31 7.82 36.54 8.47Q36.77 9.11 36.77 9.83L36.77 9.83Q36.77 10.66 36.47 11.39Q36.18 12.11 35.64 12.64Q35.11 13.17 34.38 13.48Q33.65 13.78 32.78 13.78ZM33.07 12.60L33.07 12.60Q33.50 12.60 33.87 12.42Q34.23 12.24 34.49 11.91Q34.75 11.59 34.89 11.14Q35.03 10.68 35.03 10.14L35.03 10.14Q35.03 9.60 34.89 9.12Q34.75 8.63 34.49 8.26Q34.22 7.89 33.84 7.67Q33.46 7.44 32.97 7.44L32.97 7.44Q32.53 7.44 32.16 7.63Q31.80 7.81 31.54 8.14Q31.29 8.47 31.14 8.92Q31.00 9.38 31.00 9.92L31.00 9.92Q31.00 10.46 31.14 10.94Q31.28 11.43 31.55 11.80Q31.81 12.17 32.20 12.38Q32.58 12.60 33.07 12.60ZM39.71 13.78L39.71 13.78Q39.47 13.78 39.26 13.69Q39.05 13.60 38.90 13.44Q38.75 13.29 38.66 13.08Q38.57 12.87 38.57 12.64L38.57 12.64Q38.57 12.40 38.66 12.19Q38.75 11.97 38.91 11.81Q39.07 11.65 39.28 11.56Q39.48 11.46 39.72 11.46L39.72 11.46Q39.96 11.46 40.17 11.56Q40.38 11.65 40.53 11.81Q40.69 11.97 40.78 12.18Q40.87 12.39 40.87 12.63L40.87 12.63Q40.87 12.87 40.77 13.08Q40.68 13.29 40.52 13.44Q40.37 13.60 40.16 13.69Q39.95 13.78 39.71 13.78ZM46.74 14.14L45.09 14.14Q44.93 14.23 44.76 14.35Q44.59 14.46 44.44 14.60Q44.30 14.75 44.20 14.91Q44.11 15.08 44.11 15.27L44.11 15.27Q44.11 15.48 44.23 15.65Q44.34 15.83 44.58 15.97Q44.82 16.10 45.17 16.18Q45.51 16.26 45.96 16.26L45.96 16.26Q46.48 16.26 46.89 16.15Q47.29 16.05 47.57 15.88Q47.84 15.70 47.99 15.48Q48.13 15.25 48.13 15.00L48.13 15.00Q48.13 14.79 48.02 14.63Q47.91 14.46 47.73 14.36Q47.54 14.25 47.28 14.19Q47.03 14.14 46.74 14.14L46.74 14.14ZM44.08 14.01L44.08 14.01Q43.61 13.84 43.31 13.57Q43.01 13.30 43.01 12.93L43.01 12.93Q43.01 12.71 43.13 12.50Q43.25 12.30 43.45 12.11Q43.64 11.93 43.89 11.76Q44.13 11.59 44.39 11.44L44.39 11.44Q43.96 11.25 43.66 11.00Q43.37 10.75 43.18 10.45Q42.99 10.14 42.91 9.81Q42.82 9.47 42.82 9.13L42.82 9.13Q42.82 8.48 43.10 7.95Q43.38 7.42 43.84 7.04Q44.30 6.67 44.90 6.46Q45.49 6.26 46.12 6.26L46.12 6.26Q46.59 6.26 47.04 6.38Q47.50 6.49 47.82 6.69L47.82 6.69Q48.04 6.57 48.40 6.48Q48.76 6.40 49.15 6.40L49.15 6.40L50.31 6.40L50.02 7.57L48.55 7.57Q48.59 7.62 48.67 7.73Q48.75 7.85 48.83 8.03Q48.90 8.21 48.96 8.44Q49.02 8.67 49.02 8.93L49.02 8.93Q49.02 9.50 48.75 10.00Q48.48 10.49 48.03 10.86Q47.58 11.22 47.01 11.43Q46.43 11.64 45.82 11.64L45.82 11.64Q45.69 11.64 45.56 11.63Q45.43 11.62 45.29 11.61L45.29 11.61Q45.19 11.68 45.06 11.76Q44.94 11.85 44.84 11.95Q44.73 12.04 44.67 12.16Q44.60 12.28 44.60 12.40L44.60 12.40Q44.60 12.61 44.79 12.74Q44.98 12.87 45.32 12.87L45.32 12.87L47.16 12.87Q47.65 12.87 48.11 12.99Q48.56 13.11 48.91 13.34Q49.25 13.57 49.46 13.90Q49.67 14.23 49.67 14.66L49.67 14.66Q49.67 15.13 49.40 15.62Q49.13 16.12 48.60 16.53Q48.08 16.93 47.30 17.19Q46.53 17.45 45.53 17.45L45.53 17.45Q44.88 17.45 44.33 17.33Q43.78 17.22 43.38 17.01Q42.97 16.80 42.74 16.51Q42.51 16.21 42.51 15.84L42.51 15.84Q42.51 15.51 42.68 15.23Q42.85 14.95 43.10 14.72Q43.35 14.49 43.61 14.31Q43.88 14.13 44.08 14.01ZM44.34 8.91L44.34 8.91Q44.34 9.26 44.46 9.56Q44.58 9.86 44.80 10.08Q45.01 10.30 45.31 10.42Q45.60 10.55 45.94 10.55L45.94 10.55Q46.27 10.55 46.56 10.44Q46.85 10.32 47.06 10.12Q47.27 9.91 47.39 9.62Q47.52 9.33 47.52 8.98L47.52 8.98Q47.52 8.63 47.40 8.33Q47.28 8.04 47.06 7.82Q46.85 7.61 46.55 7.49Q46.26 7.36 45.91 7.36L45.91 7.36Q45.58 7.36 45.30 7.47Q45.01 7.58 44.80 7.78Q44.59 7.98 44.47 8.27Q44.34 8.56 44.34 8.91ZM55.52 12.58L55.52 12.58Q55.34 12.73 55.09 12.94Q54.84 13.15 54.54 13.33Q54.24 13.52 53.88 13.65Q53.52 13.78 53.12 13.78L53.12 13.78Q52.72 13.78 52.37 13.63Q52.03 13.49 51.77 13.22Q51.52 12.96 51.37 12.60Q51.22 12.23 51.22 11.79L51.22 11.79Q51.22 11.32 51.41 10.88Q51.60 10.43 52.04 10.08Q52.48 9.73 53.20 9.52Q53.93 9.30 55.00 9.30L55.00 9.30L55.49 9.30L55.49 8.74Q55.49 8.44 55.39 8.20Q55.29 7.96 55.10 7.79Q54.92 7.62 54.66 7.53Q54.41 7.44 54.09 7.44L54.09 7.44Q53.85 7.44 53.57 7.50Q53.29 7.56 53.01 7.66Q52.74 7.77 52.48 7.91Q52.22 8.05 52.01 8.21L52.01 8.21L51.89 8.14L51.58 6.99Q52.40 6.56 53.12 6.41Q53.83 6.26 54.45 6.26L54.45 6.26Q55.09 6.26 55.59 6.39Q56.10 6.52 56.44 6.79Q56.79 7.06 56.97 7.48Q57.16 7.89 57.16 8.46L57.16 8.46L57.16 11.81Q57.16 11.91 57.17 12.03Q57.19 12.15 57.24 12.26Q57.29 12.37 57.39 12.45Q57.49 12.52 57.65 12.52L57.65 12.52Q57.75 12.52 57.89 12.50Q58.02 12.47 58.16 12.41L58.16 12.41L58.16 13.23Q57.79 13.48 57.43 13.63Q57.06 13.78 56.71 13.78L56.71 13.78Q56.44 13.78 56.24 13.68Q56.04 13.58 55.90 13.41Q55.77 13.24 55.68 13.03Q55.58 12.81 55.52 12.58ZM55.49 11.70L55.49 10.11L55.06 10.11Q54.35 10.11 53.92 10.21Q53.48 10.31 53.25 10.48Q53.01 10.66 52.93 10.89Q52.85 11.12 52.85 11.38L52.85 11.38Q52.85 11.66 52.93 11.87Q53.01 12.09 53.15 12.23Q53.29 12.37 53.48 12.45Q53.68 12.52 53.89 12.52L53.89 12.52Q54.06 12.52 54.24 12.49Q54.41 12.45 54.61 12.35Q54.80 12.26 55.02 12.10Q55.24 11.94 55.49 11.70L55.49 11.70ZM61.16 13.64L58.57 6.40L60.40 6.40L61.81 11.04L62.13 12.40L62.26 12.40L62.57 11.04L63.99 6.40L65.56 6.40L61.67 17.31L60.14 17.31L61.67 13.64L61.16 13.64Z"></path></g></svg>